<svg width="42" height="42" viewBox="0 0 42 42" fill="none" xmlns="http://www.w3.org/2000/svg">
<path d="M29.3991 5.77495C29.3991 5.35724 29.565 4.95663 29.8604 4.66126C30.1557 4.36589 30.5563 4.19995 30.9741 4.19995H36.2241C36.6418 4.19995 37.0424 4.36589 37.3377 4.66126C37.6331 4.95663 37.7991 5.35724 37.7991 5.77495V11.025C37.7991 11.4427 37.6331 11.8433 37.3377 12.1386C37.0424 12.434 36.6418 12.6 36.2241 12.6C35.8063 12.6 35.4057 12.434 35.1104 12.1386C34.815 11.8433 34.6491 11.4427 34.6491 11.025V9.57595L25.2621 18.9629C24.9667 19.2579 24.5664 19.4236 24.1491 19.4236C23.7317 19.4236 23.3314 19.2579 23.0361 18.9629L17.8491 13.776L8.98705 22.6379C8.84286 22.7927 8.66898 22.9168 8.47578 23.0029C8.28258 23.089 8.07403 23.1353 7.86255 23.139C7.65107 23.1427 7.44101 23.1038 7.2449 23.0246C7.04878 22.9454 6.87063 22.8275 6.72107 22.6779C6.57151 22.5284 6.45361 22.3502 6.3744 22.1541C6.29518 21.958 6.25628 21.7479 6.26001 21.5365C6.26374 21.325 6.31003 21.1164 6.39611 20.9232C6.4822 20.73 6.60631 20.5561 6.76105 20.412L16.7361 10.437C17.0314 10.142 17.4317 9.97634 17.8491 9.97634C18.2664 9.97634 18.6667 10.142 18.9621 10.437L24.1491 15.624L32.423 7.34995H30.9741C30.5563 7.34995 30.1557 7.18401 29.8604 6.88864C29.565 6.59327 29.3991 6.19267 29.3991 5.77495ZM7.87405 29.4C8.29177 29.4 8.69238 29.5659 8.98775 29.8613C9.28312 30.1566 9.44905 30.5572 9.44905 30.975V36.2249C9.44905 36.6427 9.28312 37.0433 8.98775 37.3386C8.69238 37.634 8.29177 37.7999 7.87405 37.7999C7.45634 37.7999 7.05573 37.634 6.76036 37.3386C6.46499 37.0433 6.29905 36.6427 6.29905 36.2249V30.975C6.29905 30.5572 6.46499 30.1566 6.76036 29.8613C7.05573 29.5659 7.45634 29.4 7.87405 29.4ZM17.8491 24.6749C17.8491 24.2572 17.6831 23.8566 17.3877 23.5613C17.0924 23.2659 16.6918 23.1 16.2741 23.1C15.8563 23.1 15.4557 23.2659 15.1604 23.5613C14.865 23.8566 14.6991 24.2572 14.6991 24.6749V36.2249C14.6991 36.6427 14.865 37.0433 15.1604 37.3386C15.4557 37.634 15.8563 37.7999 16.2741 37.7999C16.6918 37.7999 17.0924 37.634 17.3877 37.3386C17.6831 37.0433 17.8491 36.6427 17.8491 36.2249V24.6749ZM24.6741 27.2999C25.0918 27.2999 25.4924 27.4659 25.7877 27.7613C26.0831 28.0566 26.2491 28.4572 26.2491 28.875V36.2249C26.2491 36.6427 26.0831 37.0433 25.7877 37.3386C25.4924 37.634 25.0918 37.7999 24.6741 37.7999C24.2563 37.7999 23.8557 37.634 23.5604 37.3386C23.265 37.0433 23.0991 36.6427 23.0991 36.2249V28.875C23.0991 28.4572 23.265 28.0566 23.5604 27.7613C23.8557 27.4659 24.2563 27.2999 24.6741 27.2999ZM34.6491 20.475C34.6491 20.0572 34.4831 19.6566 34.1877 19.3613C33.8924 19.0659 33.4918 18.9 33.0741 18.9C32.6563 18.9 32.2557 19.0659 31.9604 19.3613C31.665 19.6566 31.4991 20.0572 31.4991 20.475V36.2249C31.4991 36.6427 31.665 37.0433 31.9604 37.3386C32.2557 37.634 32.6563 37.7999 33.0741 37.7999C33.4918 37.7999 33.8924 37.634 34.1877 37.3386C34.4831 37.0433 34.6491 36.6427 34.6491 36.2249V20.475Z" fill="#185CFF"/>
</svg>
