<svg width="42" height="42" viewBox="0 0 42 42" fill="none" xmlns="http://www.w3.org/2000/svg">
<path d="M12.8722 5.86527C14.3044 4.78066 16.0527 4.19566 17.8492 4.19997C18.3532 4.19997 18.7543 4.46247 18.9874 4.64307C19.2478 4.84887 19.4914 5.11137 19.7098 5.37387C19.8647 5.56196 19.9493 5.79804 19.9492 6.04168V13.65H17.6707C17.423 12.9494 16.9356 12.3589 16.2947 11.983C15.6538 11.607 14.9006 11.4697 14.1682 11.5953C13.4358 11.721 12.7715 12.1015 12.2925 12.6696C11.8136 13.2378 11.5509 13.9569 11.5509 14.7C11.5509 15.443 11.8136 16.1622 12.2925 16.7303C12.7715 17.2984 13.4358 17.679 14.1682 17.8046C14.9006 17.9303 15.6538 17.793 16.2947 17.417C16.9356 17.041 17.423 16.4506 17.6707 15.75H19.9492V35.5215C19.9493 35.6769 19.9149 35.8305 19.8484 35.971C19.782 36.1116 19.6851 36.2356 19.5649 36.3342C18.5947 37.128 17.2969 37.8 15.7492 37.8C13.2586 37.8 11.4043 36.5442 10.2052 35.0427C9.34371 33.9729 8.75365 32.7106 8.48532 31.3635C7.66943 31.1459 6.91294 30.7476 6.27192 30.198C5.11272 29.2047 4.19922 27.594 4.19922 25.2C4.19922 24.0303 4.27692 22.974 4.45122 22.05H11.0242C12.3598 22.05 13.4602 23.0475 13.6282 24.3369C12.9299 24.5896 12.3433 25.081 11.972 25.7242C11.6007 26.3674 11.4687 27.1212 11.5992 27.8523C11.7296 28.5834 12.1143 29.2449 12.6851 29.72C13.2559 30.1951 13.9763 30.4533 14.719 30.4488C15.4617 30.4444 16.1789 30.1777 16.744 29.6958C17.3091 29.2139 17.6858 28.5478 17.8076 27.8152C17.9293 27.0826 17.7882 26.3305 17.4093 25.6917C17.0304 25.053 16.438 24.5686 15.7366 24.3243C15.6481 23.1351 15.1132 22.0233 14.2392 21.212C13.3652 20.4007 12.2167 19.9499 11.0242 19.95H5.12532C5.44662 19.3242 5.87712 18.795 6.43782 18.4191C6.57965 18.3252 6.72849 18.2423 6.88302 18.1713C6.28662 16.4241 6.44202 14.3787 7.01742 12.7722C7.38492 11.739 7.96872 10.7625 8.77092 10.1115C9.30012 9.68098 9.93012 9.39747 10.6189 9.34288C10.9213 7.90857 11.7718 6.72207 12.8743 5.86527H12.8722ZM22.0492 30.45H23.6242C24.8774 30.45 26.0792 29.9522 26.9653 29.0661C27.8514 28.1799 28.3492 26.9781 28.3492 25.725V21.8715C29.0498 21.6238 29.6402 21.1364 30.0162 20.4955C30.3922 19.8545 30.5295 19.1013 30.4039 18.369C30.2782 17.6366 29.8977 16.9722 29.3296 16.4933C28.7614 16.0143 28.0423 15.7516 27.2992 15.7516C26.5561 15.7516 25.837 16.0143 25.2689 16.4933C24.7008 16.9722 24.3202 17.6366 24.1946 18.369C24.0689 19.1013 24.2062 19.8545 24.5822 20.4955C24.9582 21.1364 25.5486 21.6238 26.2492 21.8715V25.725C26.2492 27.174 25.0732 28.35 23.6242 28.35H22.0492V6.04168C22.0491 5.79804 22.1338 5.56196 22.2886 5.37387C22.5049 5.11137 22.7506 4.84887 23.011 4.64307C23.242 4.46247 23.6431 4.19997 24.1492 4.19997C25.9457 4.19566 27.6941 4.78066 29.1262 5.86527C30.2287 6.72207 31.0792 7.90857 31.3795 9.34288C32.0683 9.39537 32.6983 9.68098 33.2275 10.1115C34.0297 10.7625 34.6135 11.739 34.981 12.7722C35.5564 14.3787 35.7118 16.4262 35.1154 18.1692C35.2666 18.2406 35.4157 18.3246 35.5606 18.4212C36.1381 18.8055 36.577 19.3557 36.9004 20.0046C37.5367 21.2751 37.7992 23.0475 37.7992 25.2C37.7992 27.5961 36.8857 29.2047 35.7265 30.198C35.0855 30.7476 34.329 31.1459 33.5131 31.3635C33.3031 32.5353 32.7151 33.8919 31.7932 35.0427C30.5962 36.5442 28.7398 37.8 26.2492 37.8C24.7036 37.8 23.4037 37.128 22.4356 36.3342C22.315 36.2358 22.2178 36.1119 22.1509 35.9713C22.0841 35.8308 22.0494 35.6771 22.0492 35.5215V30.45ZM14.6992 13.65C14.4207 13.65 14.1537 13.7606 13.9568 13.9575C13.7598 14.1544 13.6492 14.4215 13.6492 14.7C13.6492 14.9785 13.7598 15.2455 13.9568 15.4424C14.1537 15.6394 14.4207 15.75 14.6992 15.75C14.9777 15.75 15.2448 15.6394 15.4417 15.4424C15.6386 15.2455 15.7492 14.9785 15.7492 14.7C15.7492 14.4215 15.6386 14.1544 15.4417 13.9575C15.2448 13.7606 14.9777 13.65 14.6992 13.65ZM14.6992 26.25C14.4207 26.25 14.1537 26.3606 13.9568 26.5575C13.7598 26.7544 13.6492 27.0215 13.6492 27.3C13.6492 27.5785 13.7598 27.8455 13.9568 28.0424C14.1537 28.2394 14.4207 28.35 14.6992 28.35C14.9777 28.35 15.2448 28.2394 15.4417 28.0424C15.6386 27.8455 15.7492 27.5785 15.7492 27.3C15.7492 27.0215 15.6386 26.7544 15.4417 26.5575C15.2448 26.3606 14.9777 26.25 14.6992 26.25ZM27.2992 19.95C27.5777 19.95 27.8448 19.8394 28.0417 19.6424C28.2386 19.4455 28.3492 19.1785 28.3492 18.9C28.3492 18.6215 28.2386 18.3544 28.0417 18.1575C27.8448 17.9606 27.5777 17.85 27.2992 17.85C27.0207 17.85 26.7537 17.9606 26.5568 18.1575C26.3598 18.3544 26.2492 18.6215 26.2492 18.9C26.2492 19.1785 26.3598 19.4455 26.5568 19.6424C26.7537 19.8394 27.0207 19.95 27.2992 19.95Z" fill="#185CFF"/>
</svg>
