<svg width="42" height="42" viewBox="0 0 42 42" fill="none" xmlns="http://www.w3.org/2000/svg">
<path d="M19.6875 30.1875V31.5C19.6875 31.8481 19.5492 32.1819 19.3031 32.4281C19.0569 32.6742 18.7231 32.8125 18.375 32.8125H15.75V34.125C15.75 34.8212 15.4734 35.4889 14.9812 35.9812C14.4889 36.4734 13.8212 36.75 13.125 36.75H7.875C7.17881 36.75 6.51113 36.4734 6.01884 35.9812C5.52656 35.4889 5.25 34.8212 5.25 34.125V30.7309C5.25015 30.0347 5.52681 29.3672 6.01912 28.875L16.1779 18.7163C15.555 16.6011 15.6137 14.3436 16.3458 12.2637C17.0779 10.1839 18.4462 8.38726 20.2567 7.12865C22.0671 5.87004 24.2278 5.21331 26.4324 5.25158C28.637 5.28985 30.7736 6.02117 32.5393 7.34186C34.305 8.66254 35.6101 10.5055 36.2695 12.6096C36.929 14.7136 36.9094 16.9718 36.2135 19.064C35.5175 21.1563 34.1806 22.9763 32.3923 24.2661C30.6039 25.5559 28.4549 26.25 26.25 26.25H23.6224V28.875C23.6224 29.2231 23.4841 29.5569 23.238 29.8031C22.9918 30.0492 22.658 30.1875 22.3099 30.1875H19.6849H19.6875ZM28.875 15.75C29.5712 15.75 30.2389 15.4734 30.7312 14.9812C31.2234 14.4889 31.5 13.8212 31.5 13.125C31.5 12.4288 31.2234 11.7611 30.7312 11.2688C30.2389 10.7766 29.5712 10.5 28.875 10.5C28.1788 10.5 27.5111 10.7766 27.0188 11.2688C26.5266 11.7611 26.25 12.4288 26.25 13.125C26.25 13.8212 26.5266 14.4889 27.0188 14.9812C27.5111 15.4734 28.1788 15.75 28.875 15.75Z" fill="#185CFF"/>
</svg>
